<svg width="31" height="16" viewBox="0 0 31 16" fill="none" xmlns="http://www.w3.org/2000/svg">
<rect x="0.25" y="0.625" width="30" height="15" rx="7.5" fill="#522398"/>
<ellipse cx="22.75" cy="8.125" rx="4.5" ry="4.5" fill="white"/>
<path d="M21.9395 10.0302C21.8902 10.0302 21.8414 10.0205 21.7959 10.0017C21.7504 9.98283 21.7091 9.95517 21.6743 9.92029L20.2344 8.48036C20.1992 8.44562 20.1713 8.40427 20.1522 8.35869C20.1331 8.31312 20.1232 8.26421 20.123 8.21479C20.1229 8.16537 20.1325 8.11641 20.1514 8.07073C20.1702 8.02504 20.1979 7.98353 20.2329 7.94858C20.2678 7.91364 20.3093 7.88594 20.355 7.8671C20.4007 7.84825 20.4496 7.83862 20.4991 7.83876C20.5485 7.8389 20.5974 7.8488 20.643 7.86791C20.6885 7.88702 20.7299 7.91494 20.7646 7.95009L21.9395 9.12489L24.7344 6.32997C24.8048 6.25989 24.9001 6.2206 24.9994 6.2207C25.0987 6.22081 25.1939 6.26031 25.2641 6.33054C25.3343 6.40076 25.3738 6.49598 25.3739 6.59529C25.374 6.6946 25.3347 6.7899 25.2646 6.86026L22.2046 9.92032C22.1698 9.9552 22.1285 9.98285 22.083 10.0017C22.0375 10.0206 21.9887 10.0302 21.9395 10.0302V10.0302Z" fill="#522398"/>
<rect x="0.25" y="0.625" width="30" height="15" rx="7.5" fill="#D9D9D9"/>
<g clip-path="url(#clip0_2054_1447)">
<ellipse cx="7.25" cy="8.125" rx="4.5" ry="4.5" fill="white"/>
<path d="M4.33388 8.39141C4.28145 8.33896 4.24575 8.27215 4.2313 8.19941C4.21684 8.12668 4.22427 8.05129 4.25265 7.98278C4.28103 7.91427 4.32909 7.85571 4.39074 7.81451C4.4524 7.77331 4.52489 7.75131 4.59904 7.7513L9.90234 7.7513C10.0012 7.75219 10.0957 7.79209 10.1653 7.86231C10.2349 7.93253 10.2739 8.02738 10.2739 8.12624C10.2739 8.2251 10.2349 8.31996 10.1653 8.39017C10.0957 8.46039 10.0012 8.50029 9.90235 8.50119H4.59904C4.54979 8.50126 4.50101 8.4916 4.45551 8.47276C4.41 8.45392 4.36867 8.42627 4.33388 8.39141V8.39141Z" fill="#06001E" fill-opacity="0.75"/>
</g>
<defs>
<clipPath id="clip0_2054_1447">
<rect width="9" height="9" fill="white" transform="translate(2.75 3.625)"/>
</clipPath>
</defs>
</svg>
