<svg width="147" height="14" viewBox="0 0 147 14" fill="none" xmlns="http://www.w3.org/2000/svg">
<path d="M4.10368 11.2796C2.54968 11.2796 0.98168 10.8176 0.11368 10.1456L0.88368 8.43757C1.70968 9.03957 2.94168 9.45957 4.11768 9.45957C5.46168 9.45957 6.00768 9.01157 6.00768 8.40957C6.00768 6.57557 0.30968 7.83557 0.30968 4.19557C0.30968 2.52957 1.65368 1.14357 4.43968 1.14357C5.67168 1.14357 6.93168 1.43757 7.84168 2.01157L7.14168 3.73357C6.23168 3.21557 5.29368 2.96357 4.42568 2.96357C3.08168 2.96357 2.56368 3.46757 2.56368 4.08357C2.56368 5.88957 8.26168 4.64357 8.26168 8.24157C8.26168 9.87957 6.90368 11.2796 4.10368 11.2796ZM14.2354 3.46757C16.0134 3.46757 17.3574 4.50357 17.3574 6.79957V11.1116H15.1734V7.13557C15.1734 5.91757 14.6134 5.35757 13.6474 5.35757C12.5974 5.35757 11.8414 6.00157 11.8414 7.38757V11.1116H9.65741V0.723572H11.8414V4.36357C12.4294 3.77557 13.2694 3.46757 14.2354 3.46757ZM20.4291 2.52957C19.6171 2.52957 19.0711 1.99757 19.0711 1.31157C19.0711 0.625572 19.6171 0.0935714 20.4291 0.0935714C21.2411 0.0935714 21.7871 0.597572 21.7871 1.26957C21.7871 1.99757 21.2411 2.52957 20.4291 2.52957ZM19.3371 11.1116V3.57957H21.5211V11.1116H19.3371ZM28 3.46757C30.114 3.46757 31.752 4.97957 31.752 7.34557C31.752 9.71157 30.114 11.2236 28 11.2236C27.062 11.2236 26.292 10.9296 25.732 10.3136V13.8276H23.548V3.57957H25.634V4.44757C26.18 3.78957 26.992 3.46757 28 3.46757ZM27.622 9.43157C28.714 9.43157 29.54 8.64757 29.54 7.34557C29.54 6.04357 28.714 5.25957 27.622 5.25957C26.53 5.25957 25.704 6.04357 25.704 7.34557C25.704 8.64757 26.53 9.43157 27.622 9.43157ZM37.6661 3.46757C39.7801 3.46757 41.4181 4.97957 41.4181 7.34557C41.4181 9.71157 39.7801 11.2236 37.6661 11.2236C36.7281 11.2236 35.9581 10.9296 35.3981 10.3136V13.8276H33.2141V3.57957H35.3001V4.44757C35.8461 3.78957 36.6581 3.46757 37.6661 3.46757ZM37.2881 9.43157C38.3801 9.43157 39.2061 8.64757 39.2061 7.34557C39.2061 6.04357 38.3801 5.25957 37.2881 5.25957C36.1961 5.25957 35.3701 6.04357 35.3701 7.34557C35.3701 8.64757 36.1961 9.43157 37.2881 9.43157ZM43.9721 2.52957C43.1601 2.52957 42.6141 1.99757 42.6141 1.31157C42.6141 0.625572 43.1601 0.0935714 43.9721 0.0935714C44.7841 0.0935714 45.3301 0.597572 45.3301 1.26957C45.3301 1.99757 44.7841 2.52957 43.9721 2.52957ZM42.8801 11.1116V3.57957H45.0641V11.1116H42.8801ZM51.669 3.46757C53.447 3.46757 54.791 4.50357 54.791 6.79957V11.1116H52.607V7.13557C52.607 5.91757 52.047 5.35757 51.081 5.35757C50.031 5.35757 49.275 6.00157 49.275 7.38757V11.1116H47.091V3.57957H49.177V4.46157C49.765 3.81757 50.647 3.46757 51.669 3.46757ZM62.5507 3.57957H64.6227V9.85157C64.6227 12.6516 63.1107 13.9396 60.3947 13.9396C58.9667 13.9396 57.5807 13.5896 56.6987 12.9036L57.5667 11.3356C58.2107 11.8536 59.2607 12.1896 60.2267 12.1896C61.7667 12.1896 62.4387 11.4896 62.4387 10.1316V9.80957C61.8647 10.4396 61.0387 10.7476 60.0587 10.7476C57.9727 10.7476 56.2927 9.30557 56.2927 7.10757C56.2927 4.90957 57.9727 3.46757 60.0587 3.46757C61.1087 3.46757 61.9767 3.81757 62.5507 4.54557V3.57957ZM60.4927 8.95557C61.6407 8.95557 62.4667 8.21357 62.4667 7.10757C62.4667 6.00157 61.6407 5.25957 60.4927 5.25957C59.3447 5.25957 58.5047 6.00157 58.5047 7.10757C58.5047 8.21357 59.3447 8.95557 60.4927 8.95557ZM75.0163 1.31157C77.6343 1.31157 79.2723 2.66957 79.2723 4.86757C79.2723 7.05157 77.6343 8.40957 75.0163 8.40957H73.0423V11.1116H70.7743V1.31157H75.0163ZM74.8903 6.56157C76.2763 6.56157 76.9763 5.93157 76.9763 4.86757C76.9763 3.78957 76.2763 3.15957 74.8903 3.15957H73.0423V6.56157H74.8903ZM82.8235 4.57357C83.3555 3.84557 84.2515 3.46757 85.4135 3.46757V5.48357C85.2315 5.46957 85.0915 5.45557 84.9235 5.45557C83.7195 5.45557 82.9215 6.11357 82.9215 7.55557V11.1116H80.7375V3.57957H82.8235V4.57357ZM90.2277 11.2236C87.8337 11.2236 86.0837 9.61357 86.0837 7.34557C86.0837 5.07757 87.8337 3.46757 90.2277 3.46757C92.6217 3.46757 94.3577 5.07757 94.3577 7.34557C94.3577 9.61357 92.6217 11.2236 90.2277 11.2236ZM90.2277 9.43157C91.3197 9.43157 92.1457 8.64757 92.1457 7.34557C92.1457 6.04357 91.3197 5.25957 90.2277 5.25957C89.1357 5.25957 88.2957 6.04357 88.2957 7.34557C88.2957 8.64757 89.1357 9.43157 90.2277 9.43157ZM100.088 9.20757L100.676 10.7476C100.228 11.0696 99.5696 11.2236 98.8976 11.2236C97.1196 11.2236 96.0836 10.3136 96.0836 8.52157V5.42757H94.9216V3.74757H96.0836V1.91357H98.2676V3.74757H100.144V5.42757H98.2676V8.49357C98.2676 9.13757 98.6176 9.48757 99.2056 9.48757C99.5276 9.48757 99.8496 9.38957 100.088 9.20757ZM109.047 7.37357C109.047 7.54157 109.019 7.77957 109.005 7.96157H103.307C103.517 8.89957 104.315 9.47357 105.463 9.47357C106.261 9.47357 106.835 9.23557 107.353 8.74557L108.515 10.0056C107.815 10.8036 106.765 11.2236 105.407 11.2236C102.803 11.2236 101.109 9.58557 101.109 7.34557C101.109 5.09157 102.831 3.46757 105.127 3.46757C107.339 3.46757 109.047 4.95157 109.047 7.37357ZM105.141 5.11957C104.147 5.11957 103.433 5.72157 103.279 6.68757H106.989C106.835 5.73557 106.121 5.11957 105.141 5.11957ZM114.141 11.2236C111.691 11.2236 109.941 9.61357 109.941 7.34557C109.941 5.07757 111.691 3.46757 114.141 3.46757C115.723 3.46757 116.969 4.15357 117.515 5.38557L115.821 6.29557C115.415 5.58157 114.813 5.25957 114.127 5.25957C113.021 5.25957 112.153 6.02957 112.153 7.34557C112.153 8.66157 113.021 9.43157 114.127 9.43157C114.813 9.43157 115.415 9.12357 115.821 8.39557L117.515 9.31957C116.969 10.5236 115.723 11.2236 114.141 11.2236ZM123.152 9.20757L123.74 10.7476C123.292 11.0696 122.634 11.2236 121.962 11.2236C120.184 11.2236 119.148 10.3136 119.148 8.52157V5.42757H117.986V3.74757H119.148V1.91357H121.332V3.74757H123.208V5.42757H121.332V8.49357C121.332 9.13757 121.682 9.48757 122.27 9.48757C122.592 9.48757 122.914 9.38957 123.152 9.20757ZM126.058 2.52957C125.246 2.52957 124.7 1.99757 124.7 1.31157C124.7 0.625572 125.246 0.0935714 126.058 0.0935714C126.87 0.0935714 127.416 0.597572 127.416 1.26957C127.416 1.99757 126.87 2.52957 126.058 2.52957ZM124.966 11.1116V3.57957H127.15V11.1116H124.966ZM132.761 11.2236C130.367 11.2236 128.617 9.61357 128.617 7.34557C128.617 5.07757 130.367 3.46757 132.761 3.46757C135.155 3.46757 136.891 5.07757 136.891 7.34557C136.891 9.61357 135.155 11.2236 132.761 11.2236ZM132.761 9.43157C133.853 9.43157 134.679 8.64757 134.679 7.34557C134.679 6.04357 133.853 5.25957 132.761 5.25957C131.669 5.25957 130.829 6.04357 130.829 7.34557C130.829 8.64757 131.669 9.43157 132.761 9.43157ZM142.929 3.46757C144.707 3.46757 146.051 4.50357 146.051 6.79957V11.1116H143.867V7.13557C143.867 5.91757 143.307 5.35757 142.341 5.35757C141.291 5.35757 140.535 6.00157 140.535 7.38757V11.1116H138.351V3.57957H140.437V4.46157C141.025 3.81757 141.907 3.46757 142.929 3.46757Z" fill="#545454"/>
</svg>
