<?xml version="1.0" encoding="UTF-8"?>
<svg id="Layer_2" xmlns="http://www.w3.org/2000/svg" viewBox="0 0 232.4 17">
  <defs>
    <style>
      .cls-1 {
        fill: #545454;
      }
    </style>
  </defs>
  <g id="Layer_1-2" data-name="Layer_1">
    <g>
      <path class="cls-1" d="M10.52,5.91c0,2.7-2.03,4.38-5.27,4.38h-2.44v3.35H0V1.51h5.25c3.24,0,5.27,1.68,5.27,4.4ZM7.68,5.91c0-1.33-.87-2.11-2.58-2.11h-2.29v4.21h2.29c1.72,0,2.58-.78,2.58-2.1Z"/>
      <path class="cls-1" d="M18.12,4.18v2.5c-.23-.02-.4-.04-.61-.04-1.49,0-2.48.81-2.48,2.6v4.4h-2.7V4.31h2.58v1.23c.66-.9,1.77-1.37,3.21-1.37Z"/>
      <path class="cls-1" d="M18.95,8.98c0-2.81,2.17-4.8,5.13-4.8s5.11,1.99,5.11,4.8-2.15,4.8-5.11,4.8-5.13-1.99-5.13-4.8ZM26.46,8.98c0-1.61-1.02-2.58-2.37-2.58s-2.39.97-2.39,2.58,1.04,2.58,2.39,2.58,2.37-.97,2.37-2.58Z"/>
      <path class="cls-1" d="M37.02,13.19c-.55.4-1.37.59-2.2.59-2.2,0-3.48-1.13-3.48-3.34v-3.83h-1.44v-2.08h1.44v-2.27h2.7v2.27h2.32v2.08h-2.32v3.79c0,.8.43,1.23,1.16,1.23.4,0,.8-.12,1.09-.35l.73,1.9Z"/>
      <path class="cls-1" d="M47.33,9.74h-7.05c.26,1.16,1.25,1.87,2.67,1.87.99,0,1.7-.29,2.34-.9l1.44,1.56c-.87.99-2.17,1.51-3.85,1.51-3.22,0-5.32-2.03-5.32-4.8s2.13-4.8,4.97-4.8,4.85,1.84,4.85,4.84c0,.21-.03.5-.05.73ZM40.24,8.16h4.59c-.19-1.18-1.07-1.94-2.29-1.94s-2.11.75-2.3,1.94Z"/>
      <path class="cls-1" d="M48.5,8.98c0-2.81,2.17-4.8,5.2-4.8,1.96,0,3.5.85,4.18,2.37l-2.1,1.13c-.5-.88-1.25-1.28-2.1-1.28-1.37,0-2.44.95-2.44,2.58s1.07,2.58,2.44,2.58c.85,0,1.59-.38,2.1-1.28l2.1,1.14c-.68,1.49-2.22,2.36-4.18,2.36-3.03,0-5.2-1.99-5.2-4.8Z"/>
      <path class="cls-1" d="M65.59,13.19c-.55.4-1.37.59-2.2.59-2.2,0-3.48-1.13-3.48-3.34v-3.83h-1.44v-2.08h1.44v-2.27h2.7v2.27h2.32v2.08h-2.32v3.79c0,.8.43,1.23,1.16,1.23.4,0,.8-.12,1.09-.35l.73,1.9Z"/>
      <path class="cls-1" d="M66.79,1.51c0-.85.68-1.51,1.68-1.51s1.68.63,1.68,1.46c0,.9-.68,1.56-1.68,1.56s-1.68-.66-1.68-1.51ZM67.12,4.31h2.7v9.32h-2.7V4.31Z"/>
      <path class="cls-1" d="M71.64,8.98c0-2.81,2.17-4.8,5.13-4.8s5.11,1.99,5.11,4.8-2.15,4.8-5.11,4.8-5.13-1.99-5.13-4.8ZM79.15,8.98c0-1.61-1.02-2.58-2.37-2.58s-2.39.97-2.39,2.58,1.04,2.58,2.39,2.58,2.37-.97,2.37-2.58Z"/>
      <path class="cls-1" d="M93.22,8.3v5.34h-2.7v-4.92c0-1.51-.69-2.2-1.89-2.2-1.3,0-2.24.8-2.24,2.51v4.61h-2.7V4.31h2.58v1.09c.73-.8,1.82-1.23,3.08-1.23,2.2,0,3.86,1.28,3.86,4.12Z"/>
      <path class="cls-1" d="M110.08.78v12.86h-2.58v-1.08c-.68.82-1.66,1.21-2.91,1.21-2.63,0-4.66-1.87-4.66-4.8s2.03-4.8,4.66-4.8c1.14,0,2.12.36,2.79,1.13V.78h2.7ZM107.43,8.98c0-1.61-1.04-2.58-2.37-2.58s-2.39.97-2.39,2.58,1.04,2.58,2.39,2.58,2.37-.97,2.37-2.58Z"/>
      <path class="cls-1" d="M121.66,9.74h-7.05c.26,1.16,1.25,1.87,2.67,1.87.99,0,1.7-.29,2.34-.9l1.44,1.56c-.87.99-2.17,1.51-3.85,1.51-3.22,0-5.32-2.03-5.32-4.8s2.13-4.8,4.97-4.8,4.85,1.84,4.85,4.84c0,.21-.03.5-.05.73ZM114.57,8.16h4.59c-.19-1.18-1.07-1.94-2.29-1.94s-2.11.75-2.3,1.94Z"/>
      <path class="cls-1" d="M128.43.78h2.7v12.86h-2.7V.78Z"/>
      <path class="cls-1" d="M133.25,1.51h2.3l-.19,4.92h-1.94l-.17-4.92Z"/>
      <path class="cls-1" d="M146.71,9.74h-7.05c.26,1.16,1.25,1.87,2.67,1.87.99,0,1.7-.29,2.34-.9l1.44,1.56c-.87.99-2.17,1.51-3.85,1.51-3.22,0-5.32-2.03-5.32-4.8s2.13-4.8,4.97-4.8,4.85,1.84,4.85,4.84c0,.21-.03.5-.05.73ZM139.63,8.16h4.59c-.19-1.18-1.07-1.94-2.29-1.94s-2.11.75-2.3,1.94Z"/>
      <path class="cls-1" d="M154.24,13.64l-2.04-2.86-2.11,2.86h-2.95l3.59-4.7-3.47-4.63h3.03l1.98,2.72,2.03-2.72h2.88l-3.47,4.56,3.6,4.77h-3.07Z"/>
      <path class="cls-1" d="M168.78,8.98c0,2.93-2.03,4.8-4.64,4.8-1.16,0-2.12-.36-2.81-1.13v4.35h-2.7V4.31h2.58v1.08c.68-.81,1.68-1.21,2.93-1.21,2.62,0,4.64,1.87,4.64,4.8ZM166.05,8.98c0-1.61-1.02-2.58-2.37-2.58s-2.37.97-2.37,2.58,1.02,2.58,2.37,2.58,2.37-.97,2.37-2.58Z"/>
      <path class="cls-1" d="M179.67,9.74h-7.05c.26,1.16,1.25,1.87,2.67,1.87.99,0,1.7-.29,2.34-.9l1.44,1.56c-.87.99-2.17,1.51-3.85,1.51-3.22,0-5.32-2.03-5.32-4.8s2.13-4.8,4.97-4.8,4.85,1.84,4.85,4.84c0,.21-.03.5-.05.73ZM172.59,8.16h4.59c-.19-1.18-1.07-1.94-2.29-1.94s-2.11.75-2.3,1.94ZM175.36,3.12h-2.12l2.34-2.49h2.91l-3.14,2.49Z"/>
      <path class="cls-1" d="M191.03.78v12.86h-2.58v-1.08c-.68.82-1.66,1.21-2.91,1.21-2.63,0-4.66-1.87-4.66-4.8s2.03-4.8,4.66-4.8c1.14,0,2.12.36,2.79,1.13V.78h2.7ZM188.38,8.98c0-1.61-1.04-2.58-2.37-2.58s-2.39.97-2.39,2.58,1.04,2.58,2.39,2.58,2.37-.97,2.37-2.58Z"/>
      <path class="cls-1" d="M193.2,1.51c0-.85.68-1.51,1.68-1.51s1.68.63,1.68,1.46c0,.9-.68,1.56-1.68,1.56s-1.68-.66-1.68-1.51ZM193.53,4.31h2.7v9.32h-2.7V4.31Z"/>
      <path class="cls-1" d="M204.76,13.19c-.55.4-1.37.59-2.2.59-2.2,0-3.48-1.13-3.48-3.34v-3.83h-1.44v-2.08h1.44v-2.27h2.7v2.27h2.32v2.08h-2.32v3.79c0,.8.43,1.23,1.16,1.23.4,0,.8-.12,1.09-.35l.73,1.9Z"/>
      <path class="cls-1" d="M205.96,1.51c0-.85.68-1.51,1.68-1.51s1.68.63,1.68,1.46c0,.9-.68,1.56-1.68,1.56s-1.68-.66-1.68-1.51ZM206.29,4.31h2.7v9.32h-2.7V4.31Z"/>
      <path class="cls-1" d="M210.82,8.98c0-2.81,2.17-4.8,5.13-4.8s5.11,1.99,5.11,4.8-2.15,4.8-5.11,4.8-5.13-1.99-5.13-4.8ZM218.32,8.98c0-1.61-1.02-2.58-2.37-2.58s-2.39.97-2.39,2.58,1.04,2.58,2.39,2.58,2.37-.97,2.37-2.58Z"/>
      <path class="cls-1" d="M232.4,8.3v5.34h-2.7v-4.92c0-1.51-.69-2.2-1.89-2.2-1.3,0-2.24.8-2.24,2.51v4.61h-2.7V4.31h2.58v1.09c.73-.8,1.82-1.23,3.08-1.23,2.2,0,3.86,1.28,3.86,4.12Z"/>
    </g>
  </g>
</svg>