<svg width="8" height="8" viewBox="0 0 8 8" fill="none" xmlns="http://www.w3.org/2000/svg">
<g clip-path="url(#clip0_2055_1450)">
<path d="M3.6875 7.57764C1.65146 7.57764 0 5.92618 0 3.89014C0 1.85409 1.65146 0.202637 3.6875 0.202637C5.72354 0.202637 7.375 1.85409 7.375 3.89014C7.375 5.92618 5.72354 7.57764 3.6875 7.57764ZM3.6875 1.07738C2.14162 1.07738 0.874744 2.33671 0.874744 3.89014C0.874744 5.44356 2.13407 6.70289 3.6875 6.70289C5.24093 6.70289 6.50026 5.44356 6.50026 3.89014C6.50026 2.33671 5.24093 1.07738 3.6875 1.07738Z" fill="#545454"/>
<path d="M3.16016 2.23096C3.16016 1.96703 3.3713 1.76343 3.68802 1.76343C4.00474 1.76343 4.21588 1.95949 4.21588 2.21588C4.21588 2.4949 4.00474 2.70604 3.68802 2.70604C3.3713 2.70604 3.16016 2.50244 3.16016 2.23096ZM3.26573 3.10571H4.11031V6.0165H3.26573V3.10571Z" fill="#545454"/>
</g>
<defs>
<clipPath id="clip0_2055_1450">
<rect width="7.375" height="7.375" fill="white" transform="translate(0 0.202637)"/>
</clipPath>
</defs>
</svg>
