<svg width="31" height="16" viewBox="0 0 31 16" fill="none" xmlns="http://www.w3.org/2000/svg">
<rect x="0.436523" y="0.25" width="30" height="15" rx="7.5" fill="#D9D9D9"/>
<circle cx="7.93652" cy="7.75" r="4.5" fill="white"/>
<path d="M5.0204 8.01641C4.96798 7.96396 4.93228 7.89715 4.91782 7.82441C4.90336 7.75168 4.91079 7.67629 4.93917 7.60778C4.96755 7.53927 5.01561 7.48071 5.07727 7.43951C5.13892 7.39831 5.21141 7.37631 5.28557 7.3763L10.5889 7.3763C10.6877 7.37719 10.7822 7.41709 10.8518 7.48731C10.9214 7.55753 10.9604 7.65238 10.9604 7.75124C10.9604 7.8501 10.9214 7.94496 10.8518 8.01517C10.7822 8.08539 10.6877 8.12529 10.5889 8.12619H5.28557C5.23632 8.12626 5.18753 8.1166 5.14203 8.09776C5.09652 8.07892 5.05519 8.05127 5.0204 8.01641V8.01641Z" fill="#06001E" fill-opacity="0.75"/>
<rect x="0.436523" y="0.25" width="30" height="15" rx="7.5" fill="#522398"/>
<ellipse cx="22.9365" cy="7.75" rx="4.5" ry="4.5" fill="white"/>
<path d="M22.126 9.65517C22.0767 9.65522 22.028 9.64555 21.9825 9.62669C21.937 9.60783 21.8956 9.58017 21.8609 9.54529L20.4209 8.10536C20.3858 8.07062 20.3578 8.02927 20.3387 7.98369C20.3196 7.93812 20.3097 7.88921 20.3096 7.83979C20.3094 7.79037 20.3191 7.74141 20.3379 7.69573C20.3568 7.65004 20.3844 7.60853 20.4194 7.57358C20.4543 7.53864 20.4958 7.51094 20.5415 7.4921C20.5872 7.47325 20.6362 7.46362 20.6856 7.46376C20.735 7.4639 20.7839 7.4738 20.8295 7.49291C20.8751 7.51202 20.9164 7.53994 20.9512 7.57509L22.126 8.74989L24.9209 5.95497C24.9913 5.88489 25.0866 5.8456 25.1859 5.8457C25.2852 5.84581 25.3804 5.88531 25.4506 5.95554C25.5209 6.02576 25.5604 6.12098 25.5605 6.22029C25.5606 6.3196 25.5212 6.4149 25.4512 6.48526L22.3911 9.54532C22.3563 9.5802 22.315 9.60785 22.2695 9.6267C22.224 9.64555 22.1752 9.65523 22.126 9.65517V9.65517Z" fill="#522398"/>
</svg>
