<?xml version="1.0" encoding="UTF-8"?>
<svg id="Layer_2" xmlns="http://www.w3.org/2000/svg" viewBox="0 0 8.4 8.4">
  <defs>
    <style>
      .cls-1 {
        fill: #545454;
      }
    </style>
  </defs>
  <g id="Layer_1-2" data-name="Layer_1">
    <g>
      <path class="cls-1" d="M4.2,8.4C1.88,8.4,0,6.52,0,4.2S1.88,0,4.2,0s4.2,1.88,4.2,4.2-1.88,4.2-4.2,4.2ZM4.2,1c-1.76,0-3.2,1.44-3.2,3.2s1.44,3.2,3.2,3.2,3.2-1.44,3.2-3.2-1.44-3.2-3.2-3.2Z"/>
      <path class="cls-1" d="M3.6,2.31c0-.3.24-.54.6-.54s.6.22.6.52c0,.32-.24.56-.6.56s-.6-.23-.6-.54ZM3.72,3.31h.96v3.32h-.96v-3.32Z"/>
    </g>
  </g>
</svg>