<svg width="189" height="14" viewBox="0 0 189 14" fill="none" xmlns="http://www.w3.org/2000/svg">
<path d="M5.12568 1.32305C7.74368 1.32305 9.38168 2.68105 9.38168 4.87905C9.38168 7.06305 7.74368 8.42105 5.12568 8.42105H3.15168V11.123H0.88368V1.32305H5.12568ZM4.99968 6.57305C6.38568 6.57305 7.08568 5.94305 7.08568 4.87905C7.08568 3.80105 6.38568 3.17105 4.99968 3.17105H3.15168V6.57305H4.99968ZM12.9329 4.58505C13.4649 3.85705 14.3609 3.47905 15.5229 3.47905V5.49505C15.3409 5.48105 15.2009 5.46705 15.0329 5.46705C13.8289 5.46705 13.0309 6.12505 13.0309 7.56705V11.123H10.8469V3.59105H12.9329V4.58505ZM20.3371 11.235C17.9431 11.235 16.1931 9.62505 16.1931 7.35705C16.1931 5.08905 17.9431 3.47905 20.3371 3.47905C22.7311 3.47905 24.4671 5.08905 24.4671 7.35705C24.4671 9.62505 22.7311 11.235 20.3371 11.235ZM20.3371 9.44305C21.4291 9.44305 22.2551 8.65905 22.2551 7.35705C22.2551 6.05505 21.4291 5.27105 20.3371 5.27105C19.2451 5.27105 18.4051 6.05505 18.4051 7.35705C18.4051 8.65905 19.2451 9.44305 20.3371 9.44305ZM30.1969 9.21905L30.7849 10.759C30.3369 11.081 29.6789 11.235 29.0069 11.235C27.2289 11.235 26.1929 10.325 26.1929 8.53305V5.43905H25.0309V3.75905H26.1929V1.92505H28.3769V3.75905H30.2529V5.43905H28.3769V8.50505C28.3769 9.14905 28.7269 9.49905 29.3149 9.49905C29.6369 9.49905 29.9589 9.40105 30.1969 9.21905ZM39.1565 7.38505C39.1565 7.55305 39.1285 7.79105 39.1145 7.97305H33.4165C33.6265 8.91105 34.4245 9.48505 35.5725 9.48505C36.3705 9.48505 36.9445 9.24705 37.4625 8.75705L38.6245 10.017C37.9245 10.815 36.8745 11.235 35.5165 11.235C32.9125 11.235 31.2185 9.59705 31.2185 7.35705C31.2185 5.10305 32.9405 3.47905 35.2365 3.47905C37.4485 3.47905 39.1565 4.96305 39.1565 7.38505ZM35.2505 5.13105C34.2565 5.13105 33.5425 5.73305 33.3885 6.69905H37.0985C36.9445 5.74705 36.2305 5.13105 35.2505 5.13105ZM44.2505 11.235C41.8005 11.235 40.0505 9.62505 40.0505 7.35705C40.0505 5.08905 41.8005 3.47905 44.2505 3.47905C45.8325 3.47905 47.0785 4.16505 47.6245 5.39705L45.9305 6.30705C45.5245 5.59305 44.9225 5.27105 44.2365 5.27105C43.1305 5.27105 42.2625 6.04105 42.2625 7.35705C42.2625 8.67305 43.1305 9.44305 44.2365 9.44305C44.9225 9.44305 45.5245 9.13505 45.9305 8.40705L47.6245 9.33105C47.0785 10.535 45.8325 11.235 44.2505 11.235ZM53.2614 9.21905L53.8494 10.759C53.4014 11.081 52.7434 11.235 52.0714 11.235C50.2934 11.235 49.2574 10.325 49.2574 8.53305V5.43905H48.0954V3.75905H49.2574V1.92505H51.4414V3.75905H53.3174V5.43905H51.4414V8.50505C51.4414 9.14905 51.7914 9.49905 52.3794 9.49905C52.7014 9.49905 53.0234 9.40105 53.2614 9.21905ZM56.1674 2.54105C55.3554 2.54105 54.8094 2.00905 54.8094 1.32305C54.8094 0.637047 55.3554 0.105046 56.1674 0.105046C56.9794 0.105046 57.5254 0.609046 57.5254 1.28105C57.5254 2.00905 56.9794 2.54105 56.1674 2.54105ZM55.0754 11.123V3.59105H57.2594V11.123H55.0754ZM62.8703 11.235C60.4763 11.235 58.7263 9.62505 58.7263 7.35705C58.7263 5.08905 60.4763 3.47905 62.8703 3.47905C65.2643 3.47905 67.0003 5.08905 67.0003 7.35705C67.0003 9.62505 65.2643 11.235 62.8703 11.235ZM62.8703 9.44305C63.9623 9.44305 64.7883 8.65905 64.7883 7.35705C64.7883 6.05505 63.9623 5.27105 62.8703 5.27105C61.7783 5.27105 60.9383 6.05505 60.9383 7.35705C60.9383 8.65905 61.7783 9.44305 62.8703 9.44305ZM73.0381 3.47905C74.8161 3.47905 76.1601 4.51505 76.1601 6.81105V11.123H73.9761V7.14705C73.9761 5.92905 73.4161 5.36905 72.4501 5.36905C71.4001 5.36905 70.6441 6.01305 70.6441 7.39905V11.123H68.4601V3.59105H70.5461V4.47305C71.1341 3.82905 72.0161 3.47905 73.0381 3.47905ZM87.5927 0.735046H89.7767V11.123H87.6907V10.255C87.1447 10.913 86.3467 11.235 85.3387 11.235C83.2107 11.235 81.5727 9.72305 81.5727 7.35705C81.5727 4.99105 83.2107 3.47905 85.3387 3.47905C86.2627 3.47905 87.0467 3.77305 87.5927 4.38905V0.735046ZM85.7167 9.44305C86.7947 9.44305 87.6347 8.65905 87.6347 7.35705C87.6347 6.05505 86.7947 5.27105 85.7167 5.27105C84.6247 5.27105 83.7847 6.05505 83.7847 7.35705C83.7847 8.65905 84.6247 9.44305 85.7167 9.44305ZM99.176 7.38505C99.176 7.55305 99.148 7.79105 99.134 7.97305H93.436C93.646 8.91105 94.444 9.48505 95.592 9.48505C96.39 9.48505 96.964 9.24705 97.482 8.75705L98.644 10.017C97.944 10.815 96.894 11.235 95.536 11.235C92.932 11.235 91.238 9.59705 91.238 7.35705C91.238 5.10305 92.96 3.47905 95.256 3.47905C97.468 3.47905 99.176 4.96305 99.176 7.38505ZM95.27 5.13105C94.276 5.13105 93.562 5.73305 93.408 6.69905H97.118C96.964 5.74705 96.25 5.13105 95.27 5.13105ZM104.595 11.123V0.735046H106.779V11.123H104.595ZM108.624 5.29905L108.484 1.32305H110.346L110.192 5.29905H108.624ZM119.41 7.38505C119.41 7.55305 119.382 7.79105 119.368 7.97305H113.67C113.88 8.91105 114.678 9.48505 115.826 9.48505C116.624 9.48505 117.198 9.24705 117.716 8.75705L118.878 10.017C118.178 10.815 117.128 11.235 115.77 11.235C113.166 11.235 111.472 9.59705 111.472 7.35705C111.472 5.10305 113.194 3.47905 115.49 3.47905C117.702 3.47905 119.41 4.96305 119.41 7.38505ZM115.504 5.13105C114.51 5.13105 113.796 5.73305 113.642 6.69905H117.352C117.198 5.74705 116.484 5.13105 115.504 5.13105ZM127.925 11.123H125.447L123.795 8.81305L122.087 11.123H119.707L122.605 7.32905L119.805 3.59105H122.255L123.851 5.78905L125.489 3.59105H127.813L125.013 7.27305L127.925 11.123ZM133.438 3.47905C135.552 3.47905 137.19 4.99105 137.19 7.35705C137.19 9.72305 135.552 11.235 133.438 11.235C132.5 11.235 131.73 10.941 131.17 10.325V13.839H128.986V3.59105H131.072V4.45905C131.618 3.80105 132.43 3.47905 133.438 3.47905ZM133.06 9.44305C134.152 9.44305 134.978 8.65905 134.978 7.35705C134.978 6.05505 134.152 5.27105 133.06 5.27105C131.968 5.27105 131.142 6.05505 131.142 7.35705C131.142 8.65905 131.968 9.44305 133.06 9.44305ZM145.036 0.609046L142.502 2.62505H140.794L142.684 0.609046H145.036ZM146.03 7.38505C146.03 7.55305 146.002 7.79105 145.988 7.97305H140.29C140.5 8.91105 141.298 9.48505 142.446 9.48505C143.244 9.48505 143.818 9.24705 144.336 8.75705L145.498 10.017C144.798 10.815 143.748 11.235 142.39 11.235C139.786 11.235 138.092 9.59705 138.092 7.35705C138.092 5.10305 139.814 3.47905 142.11 3.47905C144.322 3.47905 146.03 4.96305 146.03 7.38505ZM142.124 5.13105C141.13 5.13105 140.416 5.73305 140.262 6.69905H143.972C143.818 5.74705 143.104 5.13105 142.124 5.13105ZM152.972 0.735046H155.156V11.123H153.07V10.255C152.524 10.913 151.726 11.235 150.718 11.235C148.59 11.235 146.952 9.72305 146.952 7.35705C146.952 4.99105 148.59 3.47905 150.718 3.47905C151.642 3.47905 152.426 3.77305 152.972 4.38905V0.735046ZM151.096 9.44305C152.174 9.44305 153.014 8.65905 153.014 7.35705C153.014 6.05505 152.174 5.27105 151.096 5.27105C150.004 5.27105 149.164 6.05505 149.164 7.35705C149.164 8.65905 150.004 9.44305 151.096 9.44305ZM158.269 2.54105C157.457 2.54105 156.911 2.00905 156.911 1.32305C156.911 0.637047 157.457 0.105046 158.269 0.105046C159.081 0.105046 159.627 0.609046 159.627 1.28105C159.627 2.00905 159.081 2.54105 158.269 2.54105ZM157.177 11.123V3.59105H159.361V11.123H157.177ZM165.658 9.21905L166.246 10.759C165.798 11.081 165.14 11.235 164.468 11.235C162.69 11.235 161.654 10.325 161.654 8.53305V5.43905H160.492V3.75905H161.654V1.92505H163.838V3.75905H165.714V5.43905H163.838V8.50505C163.838 9.14905 164.188 9.49905 164.776 9.49905C165.098 9.49905 165.42 9.40105 165.658 9.21905ZM168.564 2.54105C167.752 2.54105 167.206 2.00905 167.206 1.32305C167.206 0.637047 167.752 0.105046 168.564 0.105046C169.376 0.105046 169.922 0.609046 169.922 1.28105C169.922 2.00905 169.376 2.54105 168.564 2.54105ZM167.472 11.123V3.59105H169.656V11.123H167.472ZM175.267 11.235C172.873 11.235 171.123 9.62505 171.123 7.35705C171.123 5.08905 172.873 3.47905 175.267 3.47905C177.661 3.47905 179.397 5.08905 179.397 7.35705C179.397 9.62505 177.661 11.235 175.267 11.235ZM175.267 9.44305C176.359 9.44305 177.185 8.65905 177.185 7.35705C177.185 6.05505 176.359 5.27105 175.267 5.27105C174.175 5.27105 173.335 6.05505 173.335 7.35705C173.335 8.65905 174.175 9.44305 175.267 9.44305ZM185.435 3.47905C187.213 3.47905 188.557 4.51505 188.557 6.81105V11.123H186.373V7.14705C186.373 5.92905 185.813 5.36905 184.847 5.36905C183.797 5.36905 183.041 6.01305 183.041 7.39905V11.123H180.857V3.59105H182.943V4.47305C183.531 3.82905 184.413 3.47905 185.435 3.47905Z" fill="#545454"/>
</svg>
