<svg width="152" height="30" viewBox="0 0 152 30" fill="none" xmlns="http://www.w3.org/2000/svg">
<path d="M0.488281 8.11328H1.99902C2.1084 9.09082 3.05859 9.7334 4.35742 9.7334C5.60156 9.7334 6.49707 9.09082 6.49707 8.20898C6.49707 7.44336 5.95703 6.98535 4.67871 6.6709L3.40039 6.36328C1.58887 5.92578 0.748047 5.07812 0.748047 3.7041C0.748047 2.00195 2.23145 0.833008 4.33691 0.833008C6.42188 0.833008 7.85059 2.00195 7.89844 3.7041H6.4082C6.31934 2.71973 5.50586 2.125 4.31641 2.125C3.12695 2.125 2.31348 2.72656 2.31348 3.60156C2.31348 4.29883 2.83301 4.70898 4.10449 5.02344L5.19141 5.29004C7.21484 5.76855 8.05566 6.58203 8.05566 8.02441C8.05566 9.87012 6.58594 11.0254 4.24805 11.0254C2.06055 11.0254 0.583984 9.89746 0.488281 8.11328ZM9.30664 10.8613V0.99707H10.7695V4.87305H10.8037C11.2002 4.03223 11.9863 3.54688 13.0801 3.54688C14.6592 3.54688 15.6025 4.59961 15.6025 6.22656V10.8613H14.1191V6.51367C14.1191 5.4541 13.5859 4.81836 12.5469 4.81836C11.4531 4.81836 10.7832 5.57031 10.7832 6.70508V10.8613H9.30664ZM17.0791 10.8613V3.66992H18.5557V10.8613H17.0791ZM17.8174 2.61719C17.3457 2.61719 16.9629 2.24121 16.9629 1.77637C16.9629 1.30469 17.3457 0.928711 17.8174 0.928711C18.2959 0.928711 18.6787 1.30469 18.6787 1.77637C18.6787 2.24121 18.2959 2.61719 17.8174 2.61719ZM23.8125 3.55371C25.6377 3.55371 26.8408 4.98926 26.8408 7.26562C26.8408 9.54199 25.6445 10.9844 23.8398 10.9844C22.8076 10.9844 21.9873 10.4785 21.5771 9.67871H21.543V13.2402H20.0664V3.66992H21.4951V4.90723H21.5225C21.9463 4.08008 22.7734 3.55371 23.8125 3.55371ZM23.4229 9.7334C24.5918 9.7334 25.3232 8.77637 25.3232 7.26562C25.3232 5.76172 24.5918 4.79785 23.4229 4.79785C22.2949 4.79785 21.5361 5.78223 21.5361 7.26562C21.5361 8.7627 22.2881 9.7334 23.4229 9.7334ZM31.7285 3.55371C33.5537 3.55371 34.7568 4.98926 34.7568 7.26562C34.7568 9.54199 33.5605 10.9844 31.7559 10.9844C30.7236 10.9844 29.9033 10.4785 29.4932 9.67871H29.459V13.2402H27.9824V3.66992H29.4111V4.90723H29.4385C29.8623 4.08008 30.6895 3.55371 31.7285 3.55371ZM31.3389 9.7334C32.5078 9.7334 33.2393 8.77637 33.2393 7.26562C33.2393 5.76172 32.5078 4.79785 31.3389 4.79785C30.2109 4.79785 29.4521 5.78223 29.4521 7.26562C29.4521 8.7627 30.2041 9.7334 31.3389 9.7334ZM35.9463 10.8613V3.66992H37.4229V10.8613H35.9463ZM36.6846 2.61719C36.2129 2.61719 35.8301 2.24121 35.8301 1.77637C35.8301 1.30469 36.2129 0.928711 36.6846 0.928711C37.1631 0.928711 37.5459 1.30469 37.5459 1.77637C37.5459 2.24121 37.1631 2.61719 36.6846 2.61719ZM38.9336 10.8613V3.66992H40.3418V4.87305H40.376C40.7656 4.05273 41.5312 3.54688 42.6387 3.54688C44.2246 3.54688 45.1338 4.55859 45.1338 6.20605V10.8613H43.6504V6.49316C43.6504 5.41309 43.1445 4.81836 42.1191 4.81836C41.0801 4.81836 40.4102 5.55664 40.4102 6.6709V10.8613H38.9336ZM49.625 9.66504C50.7803 9.66504 51.5391 8.72852 51.5391 7.24512C51.5391 5.76855 50.7803 4.79785 49.625 4.79785C48.4902 4.79785 47.752 5.74805 47.752 7.24512C47.752 8.74902 48.4902 9.66504 49.625 9.66504ZM49.6387 13.5684C47.9434 13.5684 46.6855 12.666 46.501 11.4219H47.9844C48.1963 12.0234 48.8525 12.4199 49.6934 12.4199C50.8486 12.4199 51.5322 11.7637 51.5322 10.7793V9.59668H51.5049C51.1016 10.376 50.2539 10.8887 49.2285 10.8887C47.4238 10.8887 46.2412 9.48047 46.2412 7.23828C46.2412 4.97559 47.417 3.55371 49.2627 3.55371C50.2812 3.55371 51.1152 4.06641 51.5527 4.90039H51.5801V3.66992H53.0156V10.7314C53.0156 12.4473 51.6895 13.5684 49.6387 13.5684ZM57.5 0.99707H61.1982C63.1123 0.99707 64.4453 2.31641 64.4453 4.2373C64.4453 6.16504 63.085 7.49121 61.1504 7.49121H59.0312V10.8613H57.5V0.99707ZM59.0312 2.28906V6.20605H60.7881C62.1211 6.20605 62.8799 5.48828 62.8799 4.24414C62.8799 3 62.1211 2.28906 60.7949 2.28906H59.0312ZM65.6074 10.8613V3.66992H67.0156V4.89355H67.0498C67.2891 4.05273 67.9316 3.55371 68.7793 3.55371C68.9912 3.55371 69.1758 3.58789 69.2852 3.6084V4.98242C69.1689 4.93457 68.9092 4.90039 68.6221 4.90039C67.6719 4.90039 67.084 5.53613 67.084 6.55469V10.8613H65.6074ZM72.9766 10.998C70.9189 10.998 69.5654 9.58301 69.5654 7.26562C69.5654 4.95508 70.9258 3.54004 72.9766 3.54004C75.0273 3.54004 76.3877 4.95508 76.3877 7.26562C76.3877 9.58301 75.0342 10.998 72.9766 10.998ZM72.9766 9.78125C74.1387 9.78125 74.8838 8.86523 74.8838 7.26562C74.8838 5.67285 74.1318 4.75684 72.9766 4.75684C71.8213 4.75684 71.0693 5.67285 71.0693 7.26562C71.0693 8.86523 71.8213 9.78125 72.9766 9.78125ZM77.96 1.96777H79.4434V3.66992H80.8105V4.83887H79.4434V8.80371C79.4434 9.42578 79.7168 9.70605 80.3184 9.70605C80.4688 9.70605 80.708 9.69238 80.8037 9.67188V10.8408C80.6396 10.8818 80.3115 10.9092 79.9834 10.9092C78.5273 10.9092 77.96 10.3555 77.96 8.96777V4.83887H76.9141V3.66992H77.96V1.96777ZM84.8574 4.72949C83.8252 4.72949 83.1006 5.51562 83.0254 6.60254H86.6211C86.5869 5.50195 85.8896 4.72949 84.8574 4.72949ZM86.6143 8.74902H88.0156C87.8105 10.0615 86.5664 10.998 84.9189 10.998C82.8066 10.998 81.5283 9.56934 81.5283 7.2998C81.5283 5.04395 82.8271 3.54004 84.8574 3.54004C86.8535 3.54004 88.0977 4.94824 88.0977 7.12891V7.63477H83.0186V7.72363C83.0186 8.97461 83.7705 9.80176 84.9531 9.80176C85.7939 9.80176 86.416 9.37793 86.6143 8.74902ZM95.4189 6.14453H94.0107C93.8604 5.37891 93.2861 4.77051 92.3223 4.77051C91.1807 4.77051 90.4287 5.7207 90.4287 7.26562C90.4287 8.84473 91.1875 9.76074 92.3359 9.76074C93.2451 9.76074 93.8398 9.26172 94.0107 8.42773H95.4326C95.2754 9.95898 94.0518 10.998 92.3223 10.998C90.2646 10.998 88.9248 9.58984 88.9248 7.26562C88.9248 4.98242 90.2646 3.54004 92.3086 3.54004C94.1611 3.54004 95.2891 4.72949 95.4189 6.14453ZM96.9092 1.96777H98.3926V3.66992H99.7598V4.83887H98.3926V8.80371C98.3926 9.42578 98.666 9.70605 99.2676 9.70605C99.418 9.70605 99.6572 9.69238 99.7529 9.67188V10.8408C99.5889 10.8818 99.2607 10.9092 98.9326 10.9092C97.4766 10.9092 96.9092 10.3555 96.9092 8.96777V4.83887H95.8633V3.66992H96.9092V1.96777ZM101.024 10.8613V3.66992H102.501V10.8613H101.024ZM101.763 2.61719C101.291 2.61719 100.908 2.24121 100.908 1.77637C100.908 1.30469 101.291 0.928711 101.763 0.928711C102.241 0.928711 102.624 1.30469 102.624 1.77637C102.624 2.24121 102.241 2.61719 101.763 2.61719ZM107.102 10.998C105.044 10.998 103.69 9.58301 103.69 7.26562C103.69 4.95508 105.051 3.54004 107.102 3.54004C109.152 3.54004 110.513 4.95508 110.513 7.26562C110.513 9.58301 109.159 10.998 107.102 10.998ZM107.102 9.78125C108.264 9.78125 109.009 8.86523 109.009 7.26562C109.009 5.67285 108.257 4.75684 107.102 4.75684C105.946 4.75684 105.194 5.67285 105.194 7.26562C105.194 8.86523 105.946 9.78125 107.102 9.78125ZM111.654 10.8613V3.66992H113.062V4.87305H113.097C113.486 4.05273 114.252 3.54688 115.359 3.54688C116.945 3.54688 117.854 4.55859 117.854 6.20605V10.8613H116.371V6.49316C116.371 5.41309 115.865 4.81836 114.84 4.81836C113.801 4.81836 113.131 5.55664 113.131 6.6709V10.8613H111.654ZM0.925781 16.9971H4.62402C6.53809 16.9971 7.87109 18.3164 7.87109 20.2373C7.87109 22.165 6.51074 23.4912 4.57617 23.4912H2.45703V26.8613H0.925781V16.9971ZM2.45703 18.2891V22.2061H4.21387C5.54688 22.2061 6.30566 21.4883 6.30566 20.2441C6.30566 19 5.54688 18.2891 4.2207 18.2891H2.45703ZM9.0332 26.8613V19.6699H10.4414V20.8936H10.4756C10.7148 20.0527 11.3574 19.5537 12.2051 19.5537C12.417 19.5537 12.6016 19.5879 12.7109 19.6084V20.9824C12.5947 20.9346 12.335 20.9004 12.0479 20.9004C11.0977 20.9004 10.5098 21.5361 10.5098 22.5547V26.8613H9.0332ZM16.4023 26.998C14.3447 26.998 12.9912 25.583 12.9912 23.2656C12.9912 20.9551 14.3516 19.54 16.4023 19.54C18.4531 19.54 19.8135 20.9551 19.8135 23.2656C19.8135 25.583 18.46 26.998 16.4023 26.998ZM16.4023 25.7812C17.5645 25.7812 18.3096 24.8652 18.3096 23.2656C18.3096 21.6729 17.5576 20.7568 16.4023 20.7568C15.2471 20.7568 14.4951 21.6729 14.4951 23.2656C14.4951 24.8652 15.2471 25.7812 16.4023 25.7812ZM21.3857 17.9678H22.8691V19.6699H24.2363V20.8389H22.8691V24.8037C22.8691 25.4258 23.1426 25.7061 23.7441 25.7061C23.8945 25.7061 24.1338 25.6924 24.2295 25.6719V26.8408C24.0654 26.8818 23.7373 26.9092 23.4092 26.9092C21.9531 26.9092 21.3857 26.3555 21.3857 24.9678V20.8389H20.3398V19.6699H21.3857V17.9678ZM28.2832 20.7295C27.251 20.7295 26.5264 21.5156 26.4512 22.6025H30.0469C30.0127 21.502 29.3154 20.7295 28.2832 20.7295ZM30.04 24.749H31.4414C31.2363 26.0615 29.9922 26.998 28.3447 26.998C26.2324 26.998 24.9541 25.5693 24.9541 23.2998C24.9541 21.0439 26.2529 19.54 28.2832 19.54C30.2793 19.54 31.5234 20.9482 31.5234 23.1289V23.6348H26.4443V23.7236C26.4443 24.9746 27.1963 25.8018 28.3789 25.8018C29.2197 25.8018 29.8418 25.3779 30.04 24.749ZM38.8447 22.1445H37.4365C37.2861 21.3789 36.7119 20.7705 35.748 20.7705C34.6064 20.7705 33.8545 21.7207 33.8545 23.2656C33.8545 24.8447 34.6133 25.7607 35.7617 25.7607C36.6709 25.7607 37.2656 25.2617 37.4365 24.4277H38.8584C38.7012 25.959 37.4775 26.998 35.748 26.998C33.6904 26.998 32.3506 25.5898 32.3506 23.2656C32.3506 20.9824 33.6904 19.54 35.7344 19.54C37.5869 19.54 38.7148 20.7295 38.8447 22.1445ZM40.335 17.9678H41.8184V19.6699H43.1855V20.8389H41.8184V24.8037C41.8184 25.4258 42.0918 25.7061 42.6934 25.7061C42.8438 25.7061 43.083 25.6924 43.1787 25.6719V26.8408C43.0146 26.8818 42.6865 26.9092 42.3584 26.9092C40.9023 26.9092 40.335 26.3555 40.335 24.9678V20.8389H39.2891V19.6699H40.335V17.9678ZM44.4502 26.8613V19.6699H45.9268V26.8613H44.4502ZM45.1885 18.6172C44.7168 18.6172 44.334 18.2412 44.334 17.7764C44.334 17.3047 44.7168 16.9287 45.1885 16.9287C45.667 16.9287 46.0498 17.3047 46.0498 17.7764C46.0498 18.2412 45.667 18.6172 45.1885 18.6172ZM50.5273 26.998C48.4697 26.998 47.1162 25.583 47.1162 23.2656C47.1162 20.9551 48.4766 19.54 50.5273 19.54C52.5781 19.54 53.9385 20.9551 53.9385 23.2656C53.9385 25.583 52.585 26.998 50.5273 26.998ZM50.5273 25.7812C51.6895 25.7812 52.4346 24.8652 52.4346 23.2656C52.4346 21.6729 51.6826 20.7568 50.5273 20.7568C49.3721 20.7568 48.6201 21.6729 48.6201 23.2656C48.6201 24.8652 49.3721 25.7812 50.5273 25.7812ZM55.0801 26.8613V19.6699H56.4883V20.873H56.5225C56.9121 20.0527 57.6777 19.5469 58.7852 19.5469C60.3711 19.5469 61.2803 20.5586 61.2803 22.2061V26.8613H59.7969V22.4932C59.7969 21.4131 59.291 20.8184 58.2656 20.8184C57.2266 20.8184 56.5566 21.5566 56.5566 22.6709V26.8613H55.0801ZM68.2529 26.9844C66.4346 26.9844 65.2314 25.5352 65.2314 23.2656C65.2314 20.9961 66.4346 19.5537 68.2393 19.5537C69.2715 19.5537 70.0918 20.0732 70.4951 20.8662H70.5225V16.9971H72.0059V26.8613H70.5703V25.6377H70.543C70.1191 26.458 69.2988 26.9844 68.2529 26.9844ZM68.6426 20.7979C67.4736 20.7979 66.7422 21.7549 66.7422 23.2656C66.7422 24.7832 67.4736 25.7334 68.6426 25.7334C69.7773 25.7334 70.5361 24.7695 70.5361 23.2656C70.5361 21.7754 69.7773 20.7979 68.6426 20.7979ZM76.5312 20.7295C75.499 20.7295 74.7744 21.5156 74.6992 22.6025H78.2949C78.2607 21.502 77.5635 20.7295 76.5312 20.7295ZM78.2881 24.749H79.6895C79.4844 26.0615 78.2402 26.998 76.5928 26.998C74.4805 26.998 73.2021 25.5693 73.2021 23.2998C73.2021 21.0439 74.501 19.54 76.5312 19.54C78.5273 19.54 79.7715 20.9482 79.7715 23.1289V23.6348H74.6924V23.7236C74.6924 24.9746 75.4443 25.8018 76.627 25.8018C77.4678 25.8018 78.0898 25.3779 78.2881 24.749ZM83.8184 26.8613V16.9971H85.2949V26.8613H83.8184ZM88.2549 20.6064H86.9355V16.9971H88.2549V20.6064ZM92.623 20.7295C91.5908 20.7295 90.8662 21.5156 90.791 22.6025H94.3867C94.3525 21.502 93.6553 20.7295 92.623 20.7295ZM94.3799 24.749H95.7812C95.5762 26.0615 94.332 26.998 92.6846 26.998C90.5723 26.998 89.2939 25.5693 89.2939 23.2998C89.2939 21.0439 90.5928 19.54 92.623 19.54C94.6191 19.54 95.8633 20.9482 95.8633 23.1289V23.6348H90.7842V23.7236C90.7842 24.9746 91.5361 25.8018 92.7188 25.8018C93.5596 25.8018 94.1816 25.3779 94.3799 24.749ZM99.582 24.2158H99.5479L97.9551 26.8613H96.3555L98.7275 23.2725L96.3896 19.6699H98.0439L99.6162 22.2744H99.6436L101.195 19.6699H102.822L100.464 23.2246L102.795 26.8613H101.168L99.582 24.2158ZM107.498 19.5537C109.323 19.5537 110.526 20.9893 110.526 23.2656C110.526 25.542 109.33 26.9844 107.525 26.9844C106.493 26.9844 105.673 26.4785 105.263 25.6787H105.229V29.2402H103.752V19.6699H105.181V20.9072H105.208C105.632 20.0801 106.459 19.5537 107.498 19.5537ZM107.108 25.7334C108.277 25.7334 109.009 24.7764 109.009 23.2656C109.009 21.7617 108.277 20.7979 107.108 20.7979C105.98 20.7979 105.222 21.7822 105.222 23.2656C105.222 24.7627 105.974 25.7334 107.108 25.7334ZM114.676 20.7295C113.644 20.7295 112.919 21.5156 112.844 22.6025H116.439C116.405 21.502 115.708 20.7295 114.676 20.7295ZM116.433 24.749H117.834C117.629 26.0615 116.385 26.998 114.737 26.998C112.625 26.998 111.347 25.5693 111.347 23.2998C111.347 21.0439 112.646 19.54 114.676 19.54C116.672 19.54 117.916 20.9482 117.916 23.1289V23.6348H112.837V23.7236C112.837 24.9746 113.589 25.8018 114.771 25.8018C115.612 25.8018 116.234 25.3779 116.433 24.749ZM115.298 18.6445H114.061L115.523 16.5732H117.007L115.298 18.6445ZM121.765 26.9844C119.946 26.9844 118.743 25.5352 118.743 23.2656C118.743 20.9961 119.946 19.5537 121.751 19.5537C122.783 19.5537 123.604 20.0732 124.007 20.8662H124.034V16.9971H125.518V26.8613H124.082V25.6377H124.055C123.631 26.458 122.811 26.9844 121.765 26.9844ZM122.154 20.7979C120.985 20.7979 120.254 21.7549 120.254 23.2656C120.254 24.7832 120.985 25.7334 122.154 25.7334C123.289 25.7334 124.048 24.7695 124.048 23.2656C124.048 21.7754 123.289 20.7979 122.154 20.7979ZM127.083 26.8613V19.6699H128.56V26.8613H127.083ZM127.821 18.6172C127.35 18.6172 126.967 18.2412 126.967 17.7764C126.967 17.3047 127.35 16.9287 127.821 16.9287C128.3 16.9287 128.683 17.3047 128.683 17.7764C128.683 18.2412 128.3 18.6172 127.821 18.6172ZM130.501 17.9678H131.984V19.6699H133.352V20.8389H131.984V24.8037C131.984 25.4258 132.258 25.7061 132.859 25.7061C133.01 25.7061 133.249 25.6924 133.345 25.6719V26.8408C133.181 26.8818 132.853 26.9092 132.524 26.9092C131.068 26.9092 130.501 26.3555 130.501 24.9678V20.8389H129.455V19.6699H130.501V17.9678ZM134.616 26.8613V19.6699H136.093V26.8613H134.616ZM135.354 18.6172C134.883 18.6172 134.5 18.2412 134.5 17.7764C134.5 17.3047 134.883 16.9287 135.354 16.9287C135.833 16.9287 136.216 17.3047 136.216 17.7764C136.216 18.2412 135.833 18.6172 135.354 18.6172ZM140.693 26.998C138.636 26.998 137.282 25.583 137.282 23.2656C137.282 20.9551 138.643 19.54 140.693 19.54C142.744 19.54 144.104 20.9551 144.104 23.2656C144.104 25.583 142.751 26.998 140.693 26.998ZM140.693 25.7812C141.855 25.7812 142.601 24.8652 142.601 23.2656C142.601 21.6729 141.849 20.7568 140.693 20.7568C139.538 20.7568 138.786 21.6729 138.786 23.2656C138.786 24.8652 139.538 25.7812 140.693 25.7812ZM145.246 26.8613V19.6699H146.654V20.873H146.688C147.078 20.0527 147.844 19.5469 148.951 19.5469C150.537 19.5469 151.446 20.5586 151.446 22.2061V26.8613H149.963V22.4932C149.963 21.4131 149.457 20.8184 148.432 20.8184C147.393 20.8184 146.723 21.5566 146.723 22.6709V26.8613H145.246Z" fill="#545454"/>
</svg>
