<?xml version="1.0" encoding="UTF-8"?>
<svg id="Layer_2" xmlns="http://www.w3.org/2000/svg" viewBox="0 0 179.25 17">
  <defs>
    <style>
      .cls-1 {
        fill: #545454;
      }
    </style>
  </defs>
  <g id="Layer_1-2" data-name="Layer_1">
    <g>
      <path class="cls-1" d="M0,12.34l.95-2.1c1.01.74,2.53,1.25,3.97,1.25,1.65,0,2.32-.55,2.32-1.29C7.24,7.96.24,9.51.24,5.04.24,2.99,1.89,1.29,5.31,1.29c1.51,0,3.06.36,4.18,1.07l-.86,2.11c-1.12-.64-2.27-.95-3.33-.95-1.65,0-2.29.62-2.29,1.38,0,2.22,7,.69,7,5.1,0,2.01-1.67,3.73-5.1,3.73-1.91,0-3.83-.57-4.9-1.39Z"/>
      <path class="cls-1" d="M21.18,8.23v5.29h-2.68v-4.88c0-1.5-.69-2.18-1.87-2.18-1.29,0-2.22.79-2.22,2.49v4.57h-2.68V.77h2.68v4.47c.72-.72,1.75-1.1,2.94-1.1,2.18,0,3.83,1.27,3.83,4.09Z"/>
      <path class="cls-1" d="M23.29,1.5c0-.84.67-1.5,1.67-1.5s1.67.62,1.67,1.44c0,.89-.67,1.55-1.67,1.55s-1.67-.65-1.67-1.5ZM23.61,4.28h2.68v9.25h-2.68V4.28Z"/>
      <path class="cls-1" d="M38.86,8.9c0,2.9-2.01,4.76-4.61,4.76-1.15,0-2.1-.36-2.78-1.12v4.31h-2.68V4.28h2.56v1.07c.67-.81,1.67-1.2,2.9-1.2,2.6,0,4.61,1.86,4.61,4.76ZM36.14,8.9c0-1.6-1.01-2.56-2.35-2.56s-2.35.96-2.35,2.56,1.01,2.56,2.35,2.56,2.35-.96,2.35-2.56Z"/>
      <path class="cls-1" d="M50.73,8.9c0,2.9-2.01,4.76-4.61,4.76-1.15,0-2.1-.36-2.78-1.12v4.31h-2.68V4.28h2.56v1.07c.67-.81,1.67-1.2,2.9-1.2,2.6,0,4.61,1.86,4.61,4.76ZM48.01,8.9c0-1.6-1.01-2.56-2.35-2.56s-2.35.96-2.35,2.56,1.01,2.56,2.35,2.56,2.35-.96,2.35-2.56Z"/>
      <path class="cls-1" d="M52.2,1.5c0-.84.67-1.5,1.67-1.5s1.67.62,1.67,1.44c0,.89-.67,1.55-1.67,1.55s-1.67-.65-1.67-1.5ZM52.52,4.28h2.68v9.25h-2.68V4.28Z"/>
      <path class="cls-1" d="M67.15,8.23v5.29h-2.68v-4.88c0-1.5-.69-2.18-1.87-2.18-1.29,0-2.22.79-2.22,2.49v4.57h-2.68V4.28h2.56v1.08c.72-.79,1.8-1.22,3.06-1.22,2.18,0,3.83,1.27,3.83,4.09Z"/>
      <path class="cls-1" d="M79.22,4.28v7.7c0,3.44-1.86,5.02-5.19,5.02-1.75,0-3.45-.43-4.54-1.27l1.07-1.93c.79.64,2.08,1.05,3.27,1.05,1.89,0,2.72-.86,2.72-2.53v-.4c-.7.77-1.72,1.15-2.92,1.15-2.56,0-4.62-1.77-4.62-4.47s2.06-4.47,4.62-4.47c1.29,0,2.35.43,3.06,1.32v-1.19h2.54ZM76.58,8.61c0-1.36-1.01-2.27-2.42-2.27s-2.44.91-2.44,2.27,1.03,2.27,2.44,2.27,2.42-.91,2.42-2.27Z"/>
      <path class="cls-1" d="M97.21,5.86c0,2.68-2.01,4.35-5.22,4.35h-2.42v3.32h-2.79V1.5h5.21c3.21,0,5.22,1.67,5.22,4.37ZM94.39,5.86c0-1.32-.86-2.1-2.56-2.1h-2.27v4.18h2.27c1.7,0,2.56-.77,2.56-2.08Z"/>
      <path class="cls-1" d="M104.75,4.14v2.48c-.22-.02-.39-.03-.6-.03-1.48,0-2.46.81-2.46,2.58v4.37h-2.68V4.28h2.56v1.22c.65-.89,1.75-1.36,3.18-1.36Z"/>
      <path class="cls-1" d="M105.58,8.9c0-2.78,2.15-4.76,5.09-4.76s5.07,1.98,5.07,4.76-2.13,4.76-5.07,4.76-5.09-1.98-5.09-4.76ZM113.02,8.9c0-1.6-1.01-2.56-2.36-2.56s-2.37.96-2.37,2.56,1.03,2.56,2.37,2.56,2.36-.96,2.36-2.56Z"/>
      <path class="cls-1" d="M123.49,13.08c-.55.4-1.36.58-2.18.58-2.18,0-3.45-1.12-3.45-3.32v-3.8h-1.43v-2.06h1.43v-2.25h2.68v2.25h2.3v2.06h-2.3v3.76c0,.79.43,1.22,1.15,1.22.4,0,.79-.12,1.08-.34l.72,1.89Z"/>
      <path class="cls-1" d="M133.73,9.66h-7c.26,1.15,1.24,1.86,2.65,1.86.98,0,1.69-.29,2.32-.89l1.43,1.55c-.86.98-2.15,1.49-3.82,1.49-3.2,0-5.28-2.01-5.28-4.76s2.11-4.76,4.93-4.76,4.81,1.82,4.81,4.8c0,.21-.03.5-.05.72ZM126.7,8.1h4.55c-.19-1.17-1.07-1.93-2.27-1.93s-2.1.74-2.29,1.93Z"/>
      <path class="cls-1" d="M134.88,8.9c0-2.78,2.15-4.76,5.16-4.76,1.94,0,3.47.84,4.14,2.35l-2.08,1.12c-.5-.88-1.24-1.27-2.08-1.27-1.36,0-2.42.95-2.42,2.56s1.07,2.56,2.42,2.56c.84,0,1.58-.38,2.08-1.27l2.08,1.13c-.67,1.48-2.2,2.34-4.14,2.34-3.01,0-5.16-1.98-5.16-4.76Z"/>
      <path class="cls-1" d="M151.84,13.08c-.55.4-1.36.58-2.18.58-2.18,0-3.45-1.12-3.45-3.32v-3.8h-1.43v-2.06h1.43v-2.25h2.68v2.25h2.3v2.06h-2.3v3.76c0,.79.43,1.22,1.15,1.22.4,0,.79-.12,1.08-.34l.72,1.89Z"/>
      <path class="cls-1" d="M153.03,1.5c0-.84.67-1.5,1.67-1.5s1.67.62,1.67,1.44c0,.89-.67,1.55-1.67,1.55s-1.67-.65-1.67-1.5ZM153.35,4.28h2.68v9.25h-2.68V4.28Z"/>
      <path class="cls-1" d="M157.84,8.9c0-2.78,2.15-4.76,5.09-4.76s5.07,1.98,5.07,4.76-2.13,4.76-5.07,4.76-5.09-1.98-5.09-4.76ZM165.28,8.9c0-1.6-1.01-2.56-2.36-2.56s-2.37.96-2.37,2.56,1.03,2.56,2.37,2.56,2.36-.96,2.36-2.56Z"/>
      <path class="cls-1" d="M179.25,8.23v5.29h-2.68v-4.88c0-1.5-.69-2.18-1.87-2.18-1.29,0-2.22.79-2.22,2.49v4.57h-2.68V4.28h2.56v1.08c.72-.79,1.81-1.22,3.06-1.22,2.18,0,3.83,1.27,3.83,4.09Z"/>
    </g>
  </g>
</svg>